HIERARCHY
ROOT Hips
{
	OFFSET -3.958830 18.904000 13.208200
	CHANNELS 6 Xposition Yposition Zposition Zrotation Yrotation Xrotation 
	JOINT LHipJoint
	{
		OFFSET 0.000000 0.000000 0.000000
		CHANNELS 3 Zrotation Yrotation Xrotation
		JOINT LeftUpLeg
		{
			OFFSET 1.800000 -1.400000 0.085000
			CHANNELS 3 Zrotation Yrotation Xrotation
			JOINT LeftLeg
			{
				OFFSET 2.215000 -6.000000 0.000000
				CHANNELS 3 Zrotation Yrotation Xrotation
				JOINT LeftFoot
				{
					OFFSET 2.500000 -6.900000 0.000000
					CHANNELS 3 Zrotation Yrotation Xrotation
					JOINT LeftToeBase
					{
						OFFSET 0.200000 -0.500000 1.950000
						CHANNELS 3 Zrotation Yrotation Xrotation
						End Site
						{
							OFFSET 0.000000 0.000000 0.000000
						}
					}
				}
			}
		}
	}
	JOINT RHipJoint
	{
		OFFSET 0.000000 0.000000 0.000000
		CHANNELS 3 Zrotation Yrotation Xrotation
		JOINT RightUpLeg
		{
			OFFSET -1.800000 -1.400000 0.085000
			CHANNELS 3 Zrotation Yrotation Xrotation
			JOINT RightLeg
			{
				OFFSET -2.215000 -6.000000 0.000000
				CHANNELS 3 Zrotation Yrotation Xrotation
				JOINT RightFoot
				{
					OFFSET -2.500000 -6.900000 0.000000
					CHANNELS 3 Zrotation Yrotation Xrotation
					JOINT RightToeBase
					{
						OFFSET -0.200000 -0.500000 1.950000
						CHANNELS 3 Zrotation Yrotation Xrotation
						End Site
						{
							OFFSET 0.000000 0.000000 0.000000
						}
					}
				}
			}
		}
	}
	JOINT LowerBack
	{
		OFFSET 0.000000 0.000000 0.000000
		CHANNELS 3 Zrotation Yrotation Xrotation
		JOINT Spine
		{
			OFFSET -0.087000 1.940000 -0.288900
			CHANNELS 3 Zrotation Yrotation Xrotation
			JOINT Spine1
			{
				OFFSET 0.000000 1.950000 0.060000
				CHANNELS 3 Zrotation Yrotation Xrotation
				JOINT Neck
				{
					OFFSET 0.000000 0.000000 0.000000
					CHANNELS 3 Zrotation Yrotation Xrotation
					JOINT Neck1
					{
						OFFSET 0.000000 1.600000 0.340000
						CHANNELS 3 Zrotation Yrotation Xrotation
						JOINT Head
						{
							OFFSET 0.000000 1.667000 -0.240000
							CHANNELS 3 Zrotation Yrotation Xrotation
							End Site
							{
								OFFSET 0.000000 0.000000 0.000000
							}
						}
					}
				}
				JOINT LeftShoulder
				{
					OFFSET 0.000000 0.000000 0.000000
					CHANNELS 3 Zrotation Yrotation Xrotation
					JOINT LeftArm
					{
						OFFSET 2.700000 1.550000 -0.730000
						CHANNELS 3 Zrotation Yrotation Xrotation
						JOINT LeftForeArm
						{
							OFFSET 5.450000 0.000000 0.000000
							CHANNELS 3 Zrotation Yrotation Xrotation
							JOINT LeftHand
							{
								OFFSET 3.450000 0.000000 0.000000
								CHANNELS 3 Zrotation Yrotation Xrotation
								JOINT LeftHandIndex1
								{
									OFFSET 0.750000 0.000000 0.000000
									CHANNELS 3 Zrotation Yrotation Xrotation
									End Site
									{
										OFFSET 0.000000 0.000000 0.000000
									}
								}
							}
						}
					}
				}
				JOINT RightShoulder
				{
					OFFSET 0.000000 0.000000 0.000000
					CHANNELS 3 Zrotation Yrotation Xrotation
					JOINT RightArm
					{
						OFFSET -2.700000 1.550000 -0.730000
						CHANNELS 3 Zrotation Yrotation Xrotation
						JOINT RightForeArm
						{
							OFFSET -5.450000 0.000000 0.000000
							CHANNELS 3 Zrotation Yrotation Xrotation
							JOINT RightHand
							{
								OFFSET -3.450000 0.000000 0.000000
								CHANNELS 3 Zrotation Yrotation Xrotation
								JOINT RightHandIndex1
								{
									OFFSET -0.750000 0.000000 0.000000
									CHANNELS 3 Zrotation Yrotation Xrotation
									End Site
									{
										OFFSET 0.000000 0.000000 0.000000
									}
								}
							}
						}
					}
				}
			}
		}
	}
}
MOTION
Frames: 9
Frame Time: 0.016667
-2.174760 16.206000 -1.050380 -6.471345 -24.677301 5.899872 -15.441204 10.290500 5.018593 4.398668 -10.202308 -46.708845 -11.357728 12.478154 40.292783 0.128907 7.865344 1.734447 0.423010 0.272340 0.144250 18.535889 -8.533026 4.187308 -3.397303 12.397128 -37.297327 9.033670 -23.975062 79.154626 -2.635972 -14.128477 -0.006712 0.212030 0.319010 0.118570 -3.918453 -1.154073 -9.138511 7.033663 2.532170 20.944850 -4.852621 4.483559 1.179152 0.000192 -5.092878 -5.312880 -10.175999 1.491947 29.197782 1.992000 -0.945230 -9.588790 -13.847100 7.698909 -1.855239 -45.001310 -9.928418 -1.981233 -54.579233 -74.138382 36.245889 -3.608028 3.674584 0.366390 0.117210 -0.088670 0.291250 12.818258 -2.558006 1.918002 54.268323 -0.096526 -10.151805 19.607282 35.738727 3.472427 2.122884 -1.569031 -0.195340 0.239390 -0.070890 -0.045680 
-2.192230 16.164240 -1.041910 -6.721934 -24.594732 5.013059 -15.472866 10.316342 5.007345 4.605057 -10.275564 -46.487043 -11.067583 12.818863 41.738371 0.160305 8.132432 1.638162 0.439240 0.285940 0.178070 18.505576 -8.393779 4.290554 -4.264498 12.629619 -38.170585 9.673202 -25.549183 80.877154 -2.782157 -14.587146 -0.113327 0.219700 0.285210 0.100070 -3.830718 -1.367388 -9.244607 6.561022 2.329957 22.879228 -4.560503 4.328297 0.402575 0.007443 -5.317053 -5.170319 -10.732826 1.475209 29.556535 1.869650 -0.876460 -11.015210 -14.642858 7.841430 -2.272140 -43.833879 -10.153600 -1.918637 -54.682890 -74.611546 36.739990 -3.591311 3.621065 0.408600 0.084180 -0.061780 0.281190 13.607948 -2.480848 1.918880 52.541932 -0.433077 -10.075349 20.627359 36.713645 4.050706 2.118651 -1.550468 -0.207820 0.258410 -0.080890 -0.065600 
-2.241810 16.057380 -1.015930 -6.867712 -24.198167 2.785413 -15.550375 10.295631 5.028112 5.238439 -10.656045 -46.253845 -10.948197 14.155330 45.784071 0.342823 9.015235 1.361392 0.439960 0.293300 0.202580 18.447180 -8.053270 4.493948 -6.770166 12.893498 -40.427371 10.650037 -29.087727 84.938316 -3.099178 -15.613472 -0.316129 0.212660 0.262610 0.060830 -3.658093 -1.807742 -9.475081 5.255606 1.980542 26.280757 -4.146172 3.911124 -0.048424 0.000648 -5.621096 -5.570270 -11.949537 2.027005 31.322203 2.497050 -0.696800 -12.981000 -15.952030 6.068452 -2.321755 -41.107203 -10.174390 -3.041330 -52.664618 -74.830269 35.129054 -3.565514 3.486899 0.474520 0.036940 -0.016240 0.277880 15.090117 -0.474066 2.602826 50.308321 -1.265613 -10.827976 20.397743 38.860504 4.399027 2.102318 -1.478298 -0.231250 0.322570 -0.090010 -0.078160 
-2.299370 15.961440 -0.998910 -7.006374 -22.513648 -0.144279 -15.625449 10.398653 4.989996 5.804578 -11.074861 -44.945038 -10.578545 15.296058 49.589077 0.542108 9.782136 1.088189 0.432950 0.286810 0.221360 18.368476 -7.777217 4.655899 -10.170189 12.239591 -42.269889 11.500385 -32.318352 87.717393 -3.337066 -16.382897 -0.492256 0.172520 0.190000 0.068250 -3.400566 -2.345561 -9.668006 3.041212 1.702757 30.751643 -3.327480 3.193538 -0.645354 0.164074 -5.131963 -6.270434 -11.961314 2.041328 34.073152 3.059630 -0.469940 -14.817020 -17.911930 2.665769 -1.945153 -36.667777 -9.533962 -4.859764 -48.872079 -76.046225 32.676292 -3.526314 3.429957 0.530920 -0.022850 0.045950 0.240490 17.105130 2.604324 3.723828 48.187704 -2.419285 -12.120001 18.016860 41.747963 4.160403 2.083091 -1.430230 -0.200780 0.296330 -0.080050 -0.095300 
-2.336580 15.861940 -0.983040 -7.932756 -21.856495 -2.061022 -15.686237 10.253797 5.106309 8.010197 -11.372693 -45.289598 -11.896331 17.547823 53.369330 0.785197 10.873846 0.722903 0.478460 0.333780 0.288120 18.345446 -7.471292 4.796551 -13.020418 11.809231 -44.476579 12.731956 -34.372275 88.161551 -3.468159 -16.712009 -0.582031 0.177520 0.113600 0.091360 -3.311739 -2.563753 -9.876809 2.502888 1.551057 34.388133 -3.325899 2.985556 -1.069350 0.503038 -4.304540 -6.447151 -10.996333 1.926028 36.176062 2.621950 0.368720 -16.921730 -20.022285 -0.183712 -2.188472 -31.916655 -10.096559 -5.945874 -42.001864 -75.106794 27.312879 -3.462373 3.401284 0.585800 -0.070060 0.119980 0.224390 18.662461 4.722778 4.514199 46.827425 -3.183064 -13.024181 13.420171 43.563117 3.046005 2.045403 -1.401702 -0.171410 0.273380 -0.104020 -0.119400 
-2.377430 15.775720 -0.966410 -8.760299 -21.812892 -3.471229 -15.752889 10.139714 5.249605 11.033413 -11.157353 -45.549947 -14.377018 20.253004 55.530578 1.007235 11.893858 0.407763 0.444370 0.305410 0.283250 18.318607 -7.218476 4.855208 -14.966601 11.478056 -46.248345 13.896532 -34.313442 86.077571 -3.389588 -16.436516 -0.534397 0.151740 0.113500 0.102890 -3.207190 -2.761102 -10.030150 1.562741 1.599186 37.118547 -2.921656 2.862122 -1.602364 0.593630 -3.738609 -6.486670 -10.314111 2.107642 37.716814 2.163530 0.987700 -17.964690 -21.630582 -2.147810 -2.301000 -28.842325 -10.081228 -6.795507 -33.732332 -73.190373 20.748359 -3.468176 3.313698 0.609490 -0.068550 0.141570 0.193580 20.217761 6.254489 4.950209 45.349378 -3.303532 -13.310702 8.998852 43.815895 1.839812 2.008717 -1.323471 -0.173400 0.293250 -0.066140 -0.129400 
-2.433540 15.703610 -0.937420 -10.386560 -22.475124 -4.803364 -15.713979 10.040187 5.327234 14.571264 -10.141124 -44.923187 -15.738057 22.446955 57.355535 1.225891 12.595099 0.219870 0.503980 0.390020 0.330530 18.369503 -7.207772 4.869612 -15.723521 11.580369 -47.061618 14.438357 -32.944556 83.487141 -3.280244 -15.840750 -0.392594 0.175830 0.067210 0.053770 -3.379820 -2.518065 -10.112771 2.306287 0.661040 39.835828 -4.005718 2.369932 -2.026909 0.415763 -3.977657 -6.931911 -11.159229 3.314914 40.036343 4.595250 1.130680 -19.778800 -22.051128 -4.021300 -1.909403 -26.809789 -9.285193 -8.023668 -24.303849 -70.592317 13.513216 -3.338174 3.215392 0.647540 -0.146650 0.205420 0.228630 20.979161 8.121225 5.333689 45.831560 -2.185057 -13.646500 3.469214 43.092447 0.052729 2.034773 -1.251190 -0.160840 0.335970 -0.139550 -0.111690 
-2.483350 15.647590 -0.896780 -11.770450 -22.667630 -5.594977 -15.640147 9.900357 5.419185 17.323817 -9.539402 -44.269248 -16.524478 24.069946 59.000513 1.417151 13.105708 0.095399 0.524150 0.439990 0.330970 18.448177 -7.298301 4.858782 -16.514510 11.227148 -47.637843 15.794187 -31.212199 78.764255 -3.057607 -14.953106 -0.188046 0.180860 0.043190 0.010960 -3.634694 -2.072450 -10.162365 3.488689 -0.736284 41.507499 -5.899843 1.571208 -2.854624 0.404963 -4.182073 -7.346758 -11.746397 4.534330 42.272791 6.357160 1.349310 -19.816480 -22.183690 -5.145365 -1.574035 -24.842559 -8.230559 -8.561915 -17.621297 -66.892922 8.853568 -3.250046 3.142206 0.654460 -0.193870 0.239520 0.259480 21.101170 9.085434 5.541387 47.637860 -1.237241 -13.856549 -1.147952 41.814774 -1.451400 2.071429 -1.197683 -0.148370 0.354680 -0.189980 -0.085050 
-2.518500 15.603580 -0.876470 -12.537782 -22.237700 -5.184075 -15.621146 9.644215 5.694758 19.612797 -9.816921 -45.530743 -17.855915 25.657840 60.404310 1.563002 13.658950 -0.057962 0.523500 0.436110 0.309650 18.509269 -7.303887 4.771626 -17.110972 10.204320 -48.966774 16.514525 -28.234791 72.338893 -2.671660 -13.663172 0.075757 0.173770 0.054260 0.029800 -3.785917 -1.764119 -10.229461 3.795758 -1.917086 41.200075 -7.273208 0.707592 -2.881627 0.294455 -4.127183 -7.408825 -11.727452 5.286233 43.114761 7.483960 1.220830 -18.804360 -22.062293 -5.977100 -1.499890 -24.100841 -8.925043 -8.311920 -9.419961 -60.127816 3.823464 -3.252748 3.073597 0.642080 -0.190480 0.232260 0.259090 21.174965 9.280965 5.465062 49.331878 -0.596600 -14.178588 -3.956383 41.825011 -2.427511 2.063549 -1.192784 -0.128860 0.336140 -0.174190 -0.072110 
